<svg xmlns="http://www.w3.org/2000/svg" width="100%" fill="none" viewBox="0 0 40 41"><path fill="#000" d="M13.005 10.0251C13.9866 10.0251 14.87 10.1101 15.68 10.2835C16.485 10.4551 17.1716 10.7385 17.7516 11.1301C18.3233 11.5218 18.77 12.0418 19.0916 12.6951C19.4033 13.3401 19.5583 14.1468 19.5583 15.1001C19.5583 16.1335 19.325 16.9968 18.8566 17.6851C18.385 18.3751 17.69 18.9401 16.7633 19.3768C18.025 19.7418 18.96 20.3801 19.58 21.2868C20.2033 22.2018 20.5083 23.2968 20.5083 24.5801C20.5083 25.6218 20.31 26.5168 19.9116 27.2685C19.5278 28.009 18.9709 28.6459 18.2883 29.1251C17.5813 29.6175 16.7915 29.9788 15.9566 30.1918C15.0813 30.4216 14.1799 30.537 13.275 30.5351H3.33331V10.0251H13.005ZM12.42 18.3118C13.22 18.3118 13.8833 18.1218 14.4066 17.7368C14.9266 17.3568 15.1783 16.7301 15.1783 15.8718C15.1783 15.3951 15.0933 15.0018 14.9266 14.6935C14.7643 14.3968 14.524 14.1502 14.2316 13.9801C13.9257 13.7987 13.588 13.6771 13.2366 13.6218C12.8536 13.5504 12.4646 13.5163 12.075 13.5201H7.84998V18.3118H12.42V18.3118ZM12.6716 27.0435C13.1166 27.0435 13.54 27.0051 13.9383 26.9151C14.34 26.8285 14.6966 26.6885 15 26.4801C15.3033 26.2801 15.5533 26.0085 15.7333 25.6618C15.915 25.3185 16.0033 24.8701 16.0033 24.3318C16.0033 23.2751 15.705 22.5235 15.115 22.0685C14.5233 21.6185 13.73 21.3951 12.7583 21.3951H7.84998V27.0451H12.6716V27.0435ZM26.9466 26.9751C27.5583 27.5718 28.44 27.8718 29.5866 27.8718C30.4083 27.8718 31.1183 27.6635 31.7166 27.2501C32.3066 26.8351 32.6666 26.3918 32.805 25.9335H36.3966C35.82 27.7201 34.945 28.9968 33.7483 29.7651C32.5666 30.5368 31.1283 30.9201 29.4483 30.9201C28.2783 30.9201 27.225 30.7318 26.2816 30.3585C25.3762 30.0059 24.558 29.4611 23.8833 28.7618C23.2198 28.0462 22.7069 27.2045 22.375 26.2868C22.0102 25.272 21.8295 24.2002 21.8416 23.1218C21.8416 22.0118 22.0266 20.9735 22.39 20.0151C22.7349 19.0888 23.2645 18.2422 23.9466 17.5268C24.6216 16.8268 25.4216 16.2751 26.3533 15.8701C27.333 15.4581 28.3872 15.2527 29.45 15.2668C30.7066 15.2668 31.805 15.5101 32.7483 16.0001C33.6631 16.4679 34.4563 17.1424 35.065 17.9701C35.67 18.7918 36.1016 19.7335 36.37 20.7885C36.6383 21.8418 36.7316 22.9418 36.655 24.0935H25.9366C25.9383 25.2668 26.3333 26.3785 26.9466 26.9751V26.9751ZM31.6333 19.1735C31.1483 18.6368 30.3283 18.3468 29.325 18.3468C28.6733 18.3468 28.135 18.4551 27.7016 18.6785C27.3054 18.8786 26.9539 19.157 26.6683 19.4968C26.4175 19.8053 26.2316 20.1613 26.1216 20.5435C26.0255 20.8621 25.9635 21.1901 25.9366 21.5218H32.5733C32.4766 20.4818 32.12 19.7135 31.6333 19.1735V19.1735ZM25.1033 11.4018H33.4183V13.4268H25.1033V11.4018Z"/></svg>