<svg width="100%" viewBox="0 0 40 40" fill="none" xmlns="http://www.w3.org/2000/svg">
<path d="M34.432 11.6335C32.9777 9.11304 30.8846 7.02051 28.3637 5.56683C25.8087 4.0785 23.0204 3.3335 19.9987 3.3335C16.977 3.3335 14.1887 4.0785 11.632 5.56683C9.07703 7.05516 7.0537 9.0785 5.56536 11.6335C4.07703 14.1885 3.33203 16.9785 3.33203 20.0002C3.33203 23.0218 4.07536 25.8118 5.56536 28.3668C7.01924 30.8877 9.11246 32.9803 11.6337 34.4335C14.1887 35.9218 16.977 36.6668 19.9987 36.6668C23.0204 36.6668 25.8087 35.9218 28.3654 34.4335C30.8862 32.9798 32.9793 30.8873 34.4337 28.3668C35.922 25.8118 36.6654 23.0218 36.6654 20.0002C36.6654 16.9785 35.922 14.1885 34.432 11.6335ZM19.9987 6.10016C23.332 6.10016 26.2854 7.16683 28.8654 9.2985C27.332 11.2552 25.0554 12.8652 22.032 14.1318C20.362 11.1102 18.552 8.58683 16.597 6.56516C17.705 6.2588 18.8491 6.10241 19.9987 6.10016ZM9.18203 11.3335C10.4008 9.78588 11.9428 8.52312 13.7004 7.6335C15.7204 9.63516 17.5754 12.1335 19.267 15.1335C15.9337 16.1335 12.4104 16.6335 8.6987 16.6335C7.7437 16.6335 7.02203 16.6118 6.53203 16.5668C7.04282 14.6575 7.94528 12.8753 9.18203 11.3335ZM6.0987 20.0002C6.0987 19.9102 6.1037 19.8002 6.11536 19.6668C6.12703 19.5335 6.13203 19.4235 6.13203 19.3335C6.55536 19.3568 7.20036 19.3668 8.06703 19.3668C12.5104 19.3668 16.6437 18.7552 20.4654 17.5335C20.777 18.1552 21.1004 18.8552 21.432 19.6335C19.232 20.1218 16.9754 21.3102 14.6637 23.2002C12.352 25.0902 10.6654 27.0785 9.5987 29.1668C7.26537 26.5218 6.0987 23.4668 6.0987 20.0002ZM19.9987 33.9002C16.842 33.9002 14.0087 32.9218 11.497 30.9685C12.4987 28.9902 14.037 27.0985 16.1154 25.3002C18.192 23.5002 20.2537 22.3785 22.2987 21.9335C23.5887 25.4985 24.4612 29.201 24.8987 32.9668C23.3368 33.5772 21.6756 33.8936 19.9987 33.9002ZM31.7987 27.3002C30.7078 29.0577 29.2388 30.55 27.4987 31.6685C27.0987 28.2018 26.332 24.8235 25.2004 21.5335C26.7537 21.4235 28.142 21.3668 29.367 21.3668C30.6987 21.3668 32.177 21.4235 33.7987 21.5335C33.5811 23.5832 32.897 25.5559 31.7987 27.3002ZM29.732 18.9668C27.7987 18.9668 26.0104 19.0452 24.3654 19.2002C24.0169 18.2881 23.6389 17.3877 23.232 16.5002C26.6754 14.9902 29.1187 13.1568 30.5637 11.0002C32.5637 13.3568 33.6537 16.0452 33.8304 19.0668C32.477 19.0002 31.1104 18.9668 29.732 18.9668Z" fill="#171717"/>
</svg>
