<svg width="100%" viewBox="0 0 40 40" fill="none" xmlns="http://www.w3.org/2000/svg">
<path fill-rule="evenodd" clip-rule="evenodd" d="M20.0452 3.3335C10.8635 3.3335 3.42188 10.7752 3.42188 19.9568C3.42188 27.3002 8.18354 33.5318 14.7902 35.7318C15.6219 35.8818 15.9219 35.3702 15.9219 34.9302C15.9219 34.5352 15.9085 33.4885 15.9035 32.1035C11.2785 33.1068 10.3019 29.8735 10.3019 29.8735C9.54854 27.9535 8.45687 27.4418 8.45687 27.4418C6.94854 26.4102 8.57188 26.4335 8.57188 26.4335C10.2419 26.5502 11.1169 28.1468 11.1169 28.1468C12.6002 30.6868 15.0102 29.9535 15.9535 29.5285C16.1052 28.4535 16.5385 27.7202 17.0119 27.3052C13.3219 26.8868 9.44187 25.4602 9.44187 19.0885C9.44187 17.2768 10.0902 15.7902 11.1485 14.6302C10.9802 14.2085 10.4052 12.5168 11.3135 10.2302C11.3135 10.2302 12.7085 9.78183 15.8835 11.9318C17.2395 11.5629 18.6383 11.3747 20.0435 11.3718C21.4488 11.3741 22.8477 11.5624 24.2035 11.9318C27.3802 9.78016 28.7735 10.2302 28.7735 10.2302C29.6819 12.5168 29.1119 14.2085 28.9385 14.6302C30.0052 15.7902 30.6452 17.2752 30.6452 19.0885C30.6452 25.4768 26.7619 26.8802 23.0585 27.2918C23.6502 27.8052 24.1835 28.8185 24.1835 30.3685C24.1835 32.5918 24.1635 34.3852 24.1635 34.9302C24.1635 35.3752 24.4602 35.8918 25.3085 35.7285C31.9119 33.5252 36.6685 27.2985 36.6685 19.9568C36.6685 10.7752 29.2269 3.3335 20.0452 3.3335Z" fill="#171717"/>
</svg>
