<svg width="100%" viewBox="0 0 40 40" fill="none" xmlns="http://www.w3.org/2000/svg">
<g clip-path="url(#clip0_770_2229)">
<path d="M24.7804 23.839C26.48 23.839 26.48 26.3834 24.7804 26.3834C23.0863 26.3834 23.0863 23.839 24.7804 23.839ZM31.6606 6.38742C33.3547 6.38742 33.3547 8.93179 31.6606 8.93179C29.9609 8.93179 29.9609 6.38742 31.6606 6.38742ZM9.15031 8.88304H29.2971C29.576 9.42247 30.0308 9.85038 30.5862 10.0958C31.1415 10.3413 31.7642 10.3895 32.3508 10.2325C32.9374 10.0756 33.4526 9.72281 33.8112 9.23277C34.1698 8.74273 34.35 8.14485 34.3221 7.53828C34.2942 6.93171 34.0599 6.3529 33.6579 5.89782C33.2559 5.44274 32.7103 5.13875 32.1119 5.03626C31.5134 4.93376 30.8978 5.03892 30.3673 5.33429C29.8368 5.62966 29.4231 6.09751 29.195 6.66023H9.15125C7.20781 6.66023 5.67969 8.13961 5.67969 10.0249V31.4703C5.67969 33.3846 7.27156 35.0009 9.15125 35.0009H30.5965C32.4865 35.0009 34.0194 33.4184 34.0194 31.4703V18.7455C34.0194 16.8312 32.4865 15.274 30.5965 15.274H17.8765C15.9331 15.274 14.2925 16.8659 14.2925 18.7455V22.7449C14.2925 24.6003 15.8994 26.1096 17.8765 26.1096H22.3203C22.5183 26.6001 22.8583 27.0204 23.2968 27.3162C23.7354 27.612 24.2523 27.7701 24.7812 27.7699C25.4872 27.7699 26.1641 27.4895 26.6632 26.9904C27.1624 26.4912 27.4428 25.8142 27.4428 25.1084C27.4428 24.4025 27.1624 23.7255 26.6632 23.2263C26.1641 22.7272 25.4872 22.4468 24.7812 22.4468C24.2938 22.4475 23.816 22.5822 23.4 22.8361C22.984 23.0901 22.6458 23.4536 22.4225 23.8868H17.8765C17.2221 23.8868 16.5144 23.4518 16.5144 22.744V18.7446C16.5144 18.0903 17.164 17.4949 17.8765 17.4949H30.5965C31.2706 17.4949 31.7975 18.0471 31.7975 18.7446V31.4693C31.7975 32.1771 31.2453 32.778 30.5965 32.778H9.15125C8.4875 32.778 7.90156 32.163 7.90156 31.4693V10.024C7.90156 9.37429 8.44344 8.88586 9.15125 8.88586L9.15031 8.88304Z" fill="black"/>
</g>
<defs>
<clipPath id="clip0_770_2229">
<rect width="30" height="30" fill="white" transform="translate(5 5)"/>
</clipPath>
</defs>
</svg>
