<svg xmlns="http://www.w3.org/2000/svg" width="100%" fill="none" viewBox="0 0 40 40"><path fill="#000" d="M22.7433 17.0617C22.6483 17.0084 22.4767 16.9817 22.2217 16.9817V22.885C22.5567 22.885 22.7617 22.8167 22.84 22.6817C22.9183 22.5467 22.9567 22.18 22.9567 21.5817V18.095C22.9567 17.6884 22.9433 17.4284 22.9183 17.3134C22.9088 17.2614 22.8882 17.212 22.858 17.1686C22.8278 17.1252 22.7887 17.0888 22.7433 17.0617ZM28.575 19.0317C28.4383 19.0317 28.3467 19.0834 28.305 19.1834C28.2633 19.285 28.2433 19.54 28.2433 19.95V22.3267C28.2433 22.7217 28.2667 22.975 28.3117 23.0867C28.36 23.1967 28.455 23.2534 28.5917 23.2534C28.735 23.2534 28.9233 23.195 28.9667 23.0817C29.0117 22.9667 29.0317 22.6917 29.0317 22.2567V19.95C29.0317 19.57 29.0083 19.3217 28.96 19.205C28.9067 19.09 28.715 19.0317 28.575 19.0317V19.0317Z"/><path fill="#000" d="M33.3333 5H6.66667C6.22464 5 5.80072 5.17559 5.48816 5.48816C5.17559 5.80072 5 6.22464 5 6.66667V33.3333C5 33.7754 5.17559 34.1993 5.48816 34.5118C5.80072 34.8244 6.22464 35 6.66667 35H33.3333C33.7754 35 34.1993 34.8244 34.5118 34.5118C34.8244 34.1993 35 33.7754 35 33.3333V6.66667C35 6.22464 34.8244 5.80072 34.5118 5.48816C34.1993 5.17559 33.7754 5 33.3333 5V5ZM11.0517 24.4383H8.715V15.4433H11.0517V24.4383ZM19.0883 24.4383H17.05L17.04 18.3667L16.2233 24.4383H14.765L13.9033 18.5L13.8967 24.4383H11.8517V15.4433H14.8833C14.9683 15.9883 15.0617 16.6267 15.16 17.36L15.495 19.645L16.035 15.4433H19.0883V24.4383V24.4383ZM25.195 21.77C25.195 22.5767 25.15 23.1167 25.075 23.3867C25.0137 23.6361 24.8748 23.8596 24.6783 24.025C24.4725 24.1861 24.2315 24.2963 23.975 24.3467C23.6983 24.4083 23.2783 24.4383 22.7183 24.4383H19.8867V15.4433H21.6317C22.7617 15.4433 23.415 15.495 23.8133 15.5983C24.2133 15.7017 24.5167 15.8717 24.7217 16.1083C24.93 16.345 25.06 16.6083 25.1117 16.9C25.1633 17.19 25.1967 17.76 25.1967 18.61V21.77H25.195ZM31.285 22.3733C31.285 22.9133 31.2467 23.315 31.175 23.5783C31.0892 23.861 30.907 24.1046 30.66 24.2667C30.3819 24.4637 30.0474 24.5655 29.7067 24.5567C29.4433 24.5567 29.0983 24.4983 28.87 24.3833C28.6255 24.2573 28.4112 24.08 28.2417 23.8633L28.095 24.4367H25.9917V15.4433H28.2417V18.3683C28.4122 18.1639 28.6256 17.9995 28.8667 17.8867C29.095 17.78 29.44 17.7267 29.7067 17.7267C30.0167 17.7267 30.2867 17.775 30.5133 17.8717C30.704 17.9482 30.8717 18.0726 31.0001 18.2329C31.1286 18.3932 31.2135 18.5839 31.2467 18.7867C31.2733 18.9533 31.285 19.3083 31.285 19.85V22.3733V22.3733Z"/></svg>