<svg xmlns="http://www.w3.org/2000/svg" width="100%" fill="none" viewBox="0 0 40 40"><path fill="#171717" d="M34.9128 13.8416C34.8959 12.5793 34.6596 11.3296 34.2144 10.1483C33.8283 9.15185 33.2387 8.24693 32.483 7.49131C31.7274 6.7357 30.8225 6.14601 29.8261 5.75993C28.66 5.32219 27.4281 5.0855 26.1828 5.05993C24.5794 4.98826 24.0711 4.96826 20.0011 4.96826C15.9311 4.96826 15.4094 4.96826 13.8178 5.05993C12.573 5.08569 11.3417 5.32238 10.1761 5.75993C9.17952 6.14574 8.27446 6.73534 7.51882 7.49098C6.76317 8.24663 6.17358 9.15169 5.78776 10.1483C5.34915 11.3135 5.11297 12.5451 5.08943 13.7899C5.01776 15.3949 4.99609 15.9033 4.99609 19.9733C4.99609 24.0433 4.99609 24.5633 5.08943 26.1566C5.11443 27.4033 5.34943 28.6333 5.78776 29.8016C6.17422 30.7979 6.76425 31.7026 7.52015 32.4579C8.27605 33.2132 9.1812 33.8026 10.1778 34.1883C11.3401 34.6436 12.5717 34.8972 13.8194 34.9383C15.4244 35.0099 15.9328 35.0316 20.0028 35.0316C24.0728 35.0316 24.5944 35.0316 26.1861 34.9383C27.4313 34.9137 28.6634 34.6776 29.8294 34.2399C30.8256 33.8534 31.7303 33.2636 32.4858 32.508C33.2414 31.7524 33.8312 30.8477 34.2178 29.8516C34.6561 28.6849 34.8911 27.4549 34.9161 26.2066C34.9878 24.6033 35.0094 24.0949 35.0094 20.0233C35.0061 15.9533 35.0061 15.4366 34.9128 13.8416ZM19.9911 27.6699C15.7344 27.6699 12.2861 24.2216 12.2861 19.9649C12.2861 15.7083 15.7344 12.2599 19.9911 12.2599C22.0346 12.2599 23.9944 13.0717 25.4394 14.5167C26.8843 15.9616 27.6961 17.9214 27.6961 19.9649C27.6961 22.0084 26.8843 23.9682 25.4394 25.4132C23.9944 26.8582 22.0346 27.6699 19.9911 27.6699ZM28.0028 13.7716C27.7668 13.7718 27.533 13.7255 27.3149 13.6353C27.0969 13.5451 26.8987 13.4127 26.7318 13.2459C26.565 13.079 26.4326 12.8808 26.3424 12.6627C26.2522 12.4447 26.2059 12.2109 26.2061 11.9749C26.2061 11.7391 26.2525 11.5056 26.3428 11.2877C26.433 11.0698 26.5653 10.8718 26.7321 10.7051C26.8988 10.5383 27.0968 10.406 27.3147 10.3158C27.5326 10.2255 27.7661 10.1791 28.0019 10.1791C28.2378 10.1791 28.4713 10.2255 28.6892 10.3158C28.907 10.406 29.105 10.5383 29.2718 10.7051C29.4385 10.8718 29.5708 11.0698 29.6611 11.2877C29.7513 11.5056 29.7978 11.7391 29.7978 11.9749C29.7978 12.9683 28.9944 13.7716 28.0028 13.7716Z"/><path fill="#171717" d="M19.9894 24.97C22.7536 24.97 24.9944 22.7291 24.9944 19.965C24.9944 17.2008 22.7536 14.96 19.9894 14.96C17.2252 14.96 14.9844 17.2008 14.9844 19.965C14.9844 22.7291 17.2252 24.97 19.9894 24.97Z"/></svg>