<svg xmlns="http://www.w3.org/2000/svg" width="100%" fill="none" viewBox="0 0 40 40"><path fill="#171717" d="M8.30682 11.995C10.3208 11.995 11.9535 10.3623 11.9535 8.34833C11.9535 6.33433 10.3208 4.70166 8.30682 4.70166C6.29282 4.70166 4.66016 6.33433 4.66016 8.34833C4.66016 10.3623 6.29282 11.995 8.30682 11.995Z"/><path fill="#171717" d="M15.3968 14.7583V34.99H21.6785V24.985C21.6785 22.345 22.1752 19.7883 25.4485 19.7883C28.6768 19.7883 28.7168 22.8066 28.7168 25.1516V34.9916H35.0018V23.8966C35.0018 18.4466 33.8285 14.2583 27.4585 14.2583C24.4002 14.2583 22.3502 15.9366 21.5118 17.525H21.4268V14.7583H15.3968ZM5.16016 14.7583H11.4518V34.99H5.16016V14.7583Z"/></svg>