<svg width="100%"  viewBox="0 0 40 41" fill="none" xmlns="http://www.w3.org/2000/svg">
<g clip-path="url(#clip0_1248_554)">
<path d="M21.7832 20.9216C21.7832 26.1394 17.5784 30.3693 12.3918 30.3693C7.20514 30.3693 3 26.1385 3 20.9216C3 15.7047 7.20482 11.4735 12.3918 11.4735C17.5787 11.4735 21.7832 15.7037 21.7832 20.9216ZM32.0859 20.9216C32.0859 25.8331 29.9835 29.8162 27.39 29.8162C24.7966 29.8162 22.6942 25.8331 22.6942 20.9216C22.6942 16.0101 24.7963 12.027 27.3897 12.027C29.9832 12.027 32.0856 16.0088 32.0856 20.9216M36.3 20.9216C36.3 25.3211 35.5607 28.8898 34.6484 28.8898C33.7362 28.8898 32.9972 25.322 32.9972 20.9216C32.9972 16.5211 33.7365 12.9534 34.6484 12.9534C35.5604 12.9534 36.3 16.5208 36.3 20.9216" fill="black"/>
</g>
<defs>
<clipPath id="clip0_1248_554">
<rect width="33.3" height="18.8958" fill="white" transform="translate(3 11.4735)"/>
</clipPath>
</defs>
</svg>
