<svg width="100%" viewBox="0 0 40 40" fill="none" xmlns="http://www.w3.org/2000/svg">
<path d="M19.9833 3.33337C10.7866 3.33337 3.33331 10.7884 3.33331 19.9834C3.33331 27.0367 7.72165 33.0667 13.9166 35.4934C13.77 34.1767 13.64 32.15 13.9733 30.7134C14.2766 29.4134 15.9266 22.4367 15.9266 22.4367C15.9266 22.4367 15.4283 21.4384 15.4283 19.9634C15.4283 17.65 16.77 15.9217 18.4416 15.9217C19.8633 15.9217 20.5483 16.9884 20.5483 18.2667C20.5483 19.6967 19.6383 21.8317 19.17 23.8117C18.7783 25.4684 20.0016 26.82 21.635 26.82C24.5933 26.82 26.87 23.7 26.87 19.195C26.87 15.2084 24.005 12.4217 19.915 12.4217C15.1766 12.4217 12.395 15.975 12.395 19.6467C12.395 21.0767 12.9466 22.6117 13.635 23.4467C13.6935 23.5096 13.7348 23.5865 13.7549 23.67C13.7751 23.7535 13.7734 23.8407 13.75 23.9234C13.6233 24.4484 13.3416 25.58 13.2883 25.8117C13.215 26.1167 13.0466 26.1817 12.73 26.035C10.6516 25.0667 9.35165 22.0267 9.35165 19.5834C9.35165 14.3317 13.1666 9.50837 20.3533 9.50837C26.13 9.50837 30.6183 13.6234 30.6183 19.125C30.6183 24.865 27 29.48 21.9783 29.48C20.29 29.48 18.705 28.605 18.1616 27.57L17.1233 31.5267C16.7483 32.9734 15.7333 34.7867 15.055 35.8934C16.6518 36.3864 18.3138 36.6364 19.985 36.635C29.18 36.635 36.635 29.18 36.635 19.985C36.635 10.79 29.1783 3.33337 19.9833 3.33337Z" fill="black"/>
</svg>
