<svg width="100%"  viewBox="0 0 40 41" fill="none" xmlns="http://www.w3.org/2000/svg">
<path d="M16.1166 23.8085C17.038 23.8085 17.785 23.0615 17.785 22.1401C17.785 21.2187 17.038 20.4718 16.1166 20.4718C15.1952 20.4718 14.4483 21.2187 14.4483 22.1401C14.4483 23.0615 15.1952 23.8085 16.1166 23.8085Z" fill="black"/>
<path d="M23.4833 26.1252C22.4716 26.8502 21.2428 27.2082 20 27.1402C18.758 27.1959 17.5342 26.8254 16.5317 26.0902C16.4451 26.0211 16.3361 25.9864 16.2255 25.9927C16.115 25.9989 16.0106 26.0457 15.9324 26.1242C15.8542 26.2026 15.8077 26.3071 15.8017 26.4176C15.7957 26.5282 15.8307 26.6371 15.9 26.7235C17.0833 27.6152 18.5367 28.0718 20.0183 28.0068C21.4976 28.0718 22.9532 27.6179 24.1333 26.7235V26.7902C24.2206 26.7031 24.2705 26.5854 24.2724 26.4622C24.2742 26.3389 24.2279 26.2198 24.1433 26.1302C24.1003 26.0865 24.0491 26.0517 23.9927 26.0278C23.9362 26.004 23.8756 25.9914 23.8144 25.991C23.7531 25.9905 23.6923 26.0021 23.6355 26.0251C23.5787 26.0482 23.527 26.0821 23.4833 26.1252V26.1252ZM23.8317 20.5402C23.3896 20.5402 22.9657 20.7158 22.6531 21.0283C22.3406 21.3409 22.165 21.7648 22.165 22.2068C22.165 22.6489 22.3406 23.0728 22.6531 23.3853C22.9657 23.6979 23.3896 23.8735 23.8317 23.8735L23.8183 23.9385C23.845 23.9418 23.8733 23.9385 23.9033 23.9385C24.3443 23.9203 24.76 23.7279 25.0593 23.4036C25.3587 23.0793 25.5171 22.6495 25.5 22.2085C25.5002 21.9893 25.4572 21.7723 25.3734 21.5698C25.2897 21.3673 25.1668 21.1833 25.0118 21.0283C24.8569 20.8734 24.6729 20.7505 24.4704 20.6667C24.2679 20.5829 24.0508 20.5399 23.8317 20.5402V20.5402Z" fill="black"/>
<path d="M20 3.80688C10.7983 3.80688 3.33331 11.2686 3.33331 20.4736C3.33331 29.6752 10.7983 37.1402 20 37.1402C29.2016 37.1402 36.6666 29.6752 36.6666 20.4736C36.6666 11.2686 29.2016 3.80688 20 3.80688ZM29.765 22.6902C29.785 22.9336 29.785 23.1786 29.765 23.4219C29.765 27.1552 25.4166 30.1919 20.0483 30.1919C14.68 30.1919 10.3316 27.1586 10.3316 23.4219C10.3116 23.1784 10.3116 22.9337 10.3316 22.6902C9.98071 22.5292 9.67312 22.287 9.43429 21.9836C9.19547 21.6803 9.03227 21.3244 8.95818 20.9455C8.88409 20.5665 8.90123 20.1754 9.00819 19.8044C9.11515 19.4334 9.30886 19.0932 9.57331 18.8119C9.79201 18.5789 10.0545 18.3914 10.3458 18.2601C10.637 18.1287 10.9513 18.056 11.2707 18.0463C11.5901 18.0365 11.9082 18.0899 12.207 18.2032C12.5057 18.3166 12.7791 18.4877 13.0116 18.7069C14.9318 17.4052 17.1904 16.6927 19.51 16.6569L20.7483 10.8736V10.8669C20.779 10.7332 20.8611 10.617 20.9768 10.5434C21.0925 10.4697 21.2326 10.4447 21.3666 10.4736L25.4483 11.2902C25.6484 10.9475 25.9641 10.6874 26.3387 10.5565C26.7133 10.4255 27.1224 10.4325 27.4924 10.576C27.8623 10.7195 28.1691 10.9902 28.3574 11.3394C28.5458 11.6887 28.6035 12.0937 28.5202 12.4817C28.4369 12.8697 28.218 13.2153 27.9028 13.4564C27.5876 13.6975 27.1968 13.8184 26.8005 13.7974C26.4043 13.7763 26.0285 13.6147 25.7406 13.3415C25.4528 13.0684 25.2717 12.7015 25.23 12.3069L21.6666 11.5569L20.585 16.7569C22.8769 16.8063 25.1056 17.5183 27.0016 18.8069C27.3404 18.4823 27.7658 18.2627 28.2265 18.1743C28.6872 18.0859 29.1637 18.1325 29.5985 18.3086C30.0333 18.4847 30.4079 18.7828 30.6773 19.1669C30.9466 19.551 31.0992 20.0047 31.1166 20.4736C31.1333 21.4119 30.605 22.2736 29.765 22.6902Z" fill="black"/>
</svg>
