<svg xmlns="http://www.w3.org/2000/svg" width="100%" fill="none" viewBox="0 0 40 41"><path fill="#000" d="M20.2767 5.47351C21.6033 5.47351 26.1017 5.84518 28.225 10.5952C28.935 12.1935 28.765 14.9102 28.625 17.0918L28.6217 17.1702C28.6033 17.4135 28.5917 17.6335 28.5817 17.8535C28.7464 17.9413 28.9319 17.9827 29.1183 17.9735C29.52 17.9518 30.0017 17.8135 30.5033 17.5718C30.6964 17.4762 30.9096 17.4282 31.125 17.4318C31.3683 17.4318 31.6067 17.4702 31.8067 17.5518C32.4083 17.7518 32.79 18.1935 32.79 18.6752C32.8117 19.2768 32.2683 19.8002 31.165 20.2402C31.0467 20.2785 30.8833 20.3418 30.705 20.4002C30.1 20.5818 29.1767 20.8818 28.9167 21.4852C28.7967 21.7868 28.835 22.1868 29.08 22.6468L29.1 22.6685C29.18 22.8502 31.1467 27.3268 35.5233 28.0502C35.6839 28.076 35.8294 28.1595 35.9328 28.285C36.0362 28.4105 36.0903 28.5693 36.085 28.7318C36.085 28.8318 36.0633 28.9302 36.025 29.0335C35.7033 29.7952 34.32 30.3585 31.8083 30.7352C31.73 30.8568 31.6483 31.2385 31.5883 31.5002C31.5517 31.7402 31.4883 31.9818 31.41 32.2402C31.3083 32.6035 31.0483 32.7818 30.6667 32.7818H30.6267C30.3837 32.7706 30.1422 32.7377 29.905 32.6835C29.3442 32.5625 28.772 32.5021 28.1983 32.5035C27.7983 32.5035 27.3983 32.5235 26.9783 32.6035C26.1733 32.7435 25.4717 33.2252 24.6683 33.7868C23.5233 34.5885 22.22 35.5135 20.2533 35.5135C20.1733 35.5135 20.0933 35.4935 20.01 35.4935H19.8117C17.8433 35.4935 16.56 34.5885 15.4167 33.7668C14.615 33.2035 13.9333 32.7235 13.1283 32.5818C12.7172 32.5204 12.3024 32.487 11.8867 32.4818C11.1617 32.4818 10.6017 32.6018 10.1817 32.6818C9.89835 32.7402 9.65835 32.7802 9.45668 32.7802C9.28092 32.7935 9.10608 32.7446 8.96284 32.6418C8.8196 32.5391 8.7171 32.3893 8.67335 32.2185C8.59335 31.9618 8.55501 31.6968 8.49501 31.4585C8.43168 31.2152 8.35335 30.7985 8.27335 30.6952C5.70168 30.3968 4.31835 29.8335 3.99835 29.0518C3.95415 28.9571 3.92922 28.8546 3.92501 28.7502C3.91861 28.5874 3.97231 28.428 4.07589 28.3023C4.17948 28.1766 4.32569 28.0934 4.48668 28.0685C8.86168 27.3452 10.8283 22.8702 10.91 22.6818L10.9317 22.6435C11.1733 22.1818 11.2317 21.7768 11.0917 21.4785C10.8317 20.8968 9.90668 20.5968 9.30835 20.3952C9.14914 20.355 8.99359 20.3014 8.84335 20.2352C7.36001 19.6518 7.15835 18.9885 7.24001 18.5285C7.36001 17.8885 8.14168 17.4668 8.80501 17.4668C9.00001 17.4668 9.16668 17.5052 9.31835 17.5668C9.88001 17.8252 10.3767 17.9685 10.7983 17.9685C11.0144 17.9764 11.2287 17.9276 11.42 17.8268L11.3517 17.0635C11.2183 14.8852 11.0483 12.1718 11.7633 10.5818C13.8233 5.85518 18.3117 5.49184 19.6367 5.49184L20.195 5.47351H20.2767Z"/></svg>