<svg xmlns="http://www.w3.org/2000/svg" width="100%" fill="none" viewBox="0 0 40 40"><path fill="#171717" d="M20.0149 3.36523C10.8566 3.36523 3.36328 10.8586 3.36328 20.0169C3.36328 29.1736 10.8566 36.6669 20.0149 36.6669C29.1716 36.6669 36.6649 29.1736 36.6649 20.0169C36.6649 10.8586 29.2549 3.36523 20.0149 3.36523ZM27.6733 27.4252C27.3416 27.9236 26.7583 28.0919 26.2566 27.7602C22.3416 25.3436 17.4299 24.8436 11.6016 26.1752C11.0216 26.3452 10.5216 25.9286 10.3549 25.4269C10.1866 24.8436 10.6033 24.3469 11.1049 24.1786C17.4299 22.7619 22.9266 23.3469 27.2549 26.0119C27.8383 26.2602 27.9216 26.9252 27.6733 27.4252ZM29.6733 22.8469C29.2549 23.4286 28.5066 23.6786 27.9216 23.2619C23.4266 20.5186 16.6016 19.6819 11.3566 21.3486C10.6933 21.5169 9.93995 21.1819 9.77495 20.5186C9.60661 19.8486 9.94161 19.0986 10.6066 18.9319C16.6833 17.1019 24.1783 18.0186 29.3383 21.1836C29.8383 21.4319 30.0883 22.2636 29.6733 22.8469ZM29.8383 18.1819C24.5099 15.0202 15.6016 14.6869 10.5216 16.2719C10.1353 16.3832 9.72093 16.3414 9.36462 16.1552C9.00831 15.969 8.73743 15.6526 8.60828 15.2719C8.49498 14.8851 8.53561 14.4695 8.72167 14.112C8.90774 13.7544 9.22482 13.4827 9.60661 13.3536C15.5183 11.6052 25.2599 11.9369 31.4216 15.6052C32.1699 16.0202 32.4199 17.0202 32.0033 17.7686C31.5866 18.3519 30.5883 18.5986 29.8383 18.1819Z"/></svg>