<svg xmlns="http://www.w3.org/2000/svg" width="100%" fill="none" viewBox="0 0 40 41"><path fill="#000" d="M32.65 11.6236C30.9886 11.2582 29.4856 10.3759 28.3568 9.10337C27.2279 7.8308 26.5312 6.23334 26.3667 4.54022V3.80688H20.6167V26.5902C20.6178 27.6012 20.3009 28.5868 19.7107 29.4076C19.1206 30.2284 18.2871 30.8427 17.3284 31.1635C16.3697 31.4843 15.3344 31.4953 14.3691 31.195C13.4038 30.8947 12.5575 30.2983 11.95 29.4902C11.4057 28.775 11.0725 27.9217 10.9879 27.0269C10.9033 26.1321 11.0707 25.2315 11.4713 24.4269C11.8719 23.6223 12.4895 22.9458 13.2545 22.474C14.0195 22.0021 14.9012 21.7537 15.8 21.7569C16.2971 21.754 16.7917 21.8271 17.2667 21.9736V16.1402C16.7139 16.0718 16.1568 16.0439 15.6 16.0569C13.5488 16.1117 11.5582 16.7634 9.8718 17.9323C8.18541 19.1012 6.87648 20.7365 6.10529 22.638C5.3341 24.5394 5.13413 26.6245 5.52986 28.6378C5.92559 30.6512 6.89985 32.5054 8.33333 33.9736C9.80247 35.4672 11.6825 36.4905 13.7345 36.9132C15.7865 37.336 17.9179 37.1392 19.8578 36.3479C21.7977 35.5565 23.4586 34.2064 24.6294 32.469C25.8002 30.7316 26.4281 28.6853 26.4333 26.5902V14.9236C28.7524 16.5801 31.5333 17.4663 34.3833 17.4569V11.7902C33.8235 11.7925 33.2649 11.7367 32.7167 11.6236H32.65Z"/></svg>