<svg width="100%" viewBox="0 0 40 40" fill="none" xmlns="http://www.w3.org/2000/svg">
<path d="M32.7204 13.3283C32.742 13.62 32.742 13.91 32.742 14.2C32.742 23.075 25.987 33.3017 13.642 33.3017C9.8387 33.3017 6.30536 32.2 3.33203 30.2867C3.87203 30.3483 4.39203 30.37 4.9537 30.37C7.97535 30.3773 10.9114 29.3669 13.2887 27.5017C11.8877 27.4763 10.5297 27.0141 9.40409 26.1796C8.27853 25.345 7.44167 24.1798 7.01036 22.8467C7.42536 22.9083 7.84203 22.95 8.2787 22.95C8.88036 22.95 9.48536 22.8667 10.047 22.7217C8.52663 22.4147 7.15949 21.5906 6.17806 20.3895C5.19664 19.1884 4.66152 17.6844 4.6637 16.1333V16.05C5.5587 16.5483 6.59703 16.86 7.69703 16.9017C6.77551 16.2893 6.0199 15.4584 5.4976 14.483C4.9753 13.5076 4.70255 12.4181 4.7037 11.3117C4.7037 10.065 5.03536 8.92167 5.61703 7.925C7.30393 10 9.40787 11.6976 11.7926 12.9078C14.1773 14.1179 16.7896 14.8137 19.4604 14.95C19.357 14.45 19.2937 13.9317 19.2937 13.4117C19.2933 12.5299 19.4666 11.6568 19.8038 10.8421C20.141 10.0274 20.6355 9.28713 21.259 8.66365C21.8825 8.04017 22.6227 7.54569 23.4374 7.20846C24.2521 6.87124 25.1253 6.6979 26.007 6.69833C27.9404 6.69833 29.6854 7.50833 30.912 8.81833C32.415 8.5277 33.8563 7.97904 35.172 7.19667C34.6711 8.74803 33.6216 10.0635 32.2204 10.8967C33.5533 10.7446 34.8561 10.3941 36.0854 9.85667C35.1672 11.1952 34.0296 12.3689 32.7204 13.3283V13.3283Z" fill="#171717"/>
</svg>
