<svg xmlns="http://www.w3.org/2000/svg" width="100%" fill="none" viewBox="0 0 40 40"><path fill="#000" d="M20 3.33337C10.81 3.33337 3.33331 10.81 3.33331 20C3.33331 29.19 10.81 36.6667 20 36.6667C29.19 36.6667 36.6666 29.19 36.6666 20C36.6666 10.81 29.19 3.33337 20 3.33337ZM33.2183 18.3334H28.6116C28.406 14.6854 27.3855 11.13 25.625 7.92837C27.6653 8.88179 29.4314 10.3357 30.759 12.1549C32.0866 13.9741 32.9326 16.0995 33.2183 18.3334ZM20.8833 6.71171C22.6083 8.98504 24.9283 13.0117 25.2616 18.3334H15.05C15.2816 14.0067 16.7066 9.95337 19.135 6.71004C19.4216 6.69337 19.7083 6.66671 20 6.66671C20.2983 6.66671 20.59 6.69337 20.8833 6.71171ZM14.48 7.87837C12.84 11.03 11.8933 14.6034 11.7166 18.3334H6.78165C7.06959 16.0798 7.9277 13.9369 9.2748 12.1074C10.6219 10.2779 12.4134 8.82235 14.48 7.87837ZM6.78165 21.6667H11.7383C11.965 25.6317 12.8466 29.13 14.3316 32.05C12.302 31.0933 10.5462 29.6403 9.22658 27.8255C7.90696 26.0107 7.06608 23.8925 6.78165 21.6667ZM19.0833 33.2884C16.7483 30.4584 15.37 26.4934 15.0683 21.6667H25.2566C24.91 26.2884 23.395 30.3267 20.9183 33.2867C20.615 33.3067 20.3116 33.3334 20 33.3334C19.69 33.3334 19.3883 33.3067 19.0833 33.2884ZM25.7683 32.0017C27.36 29.0117 28.3316 25.5 28.5866 21.6667H33.2166C32.9354 23.8738 32.1066 25.9756 30.8057 27.7806C29.5048 29.5857 27.7731 31.0367 25.7683 32.0017Z"/></svg>