<svg xmlns="http://www.w3.org/2000/svg" width="100%" fill="none" viewBox="0 0 40 40"><path fill="#171717" d="M35.9869 12.0052C35.7971 11.3008 35.4261 10.6585 34.9109 10.1421C34.3956 9.62573 33.7542 9.25328 33.0503 9.06184C30.4403 8.34518 19.9986 8.33351 19.9986 8.33351C19.9986 8.33351 9.5586 8.32184 6.94693 9.00684C6.24347 9.20709 5.6033 9.5848 5.08787 10.1037C4.57245 10.6227 4.19907 11.2654 4.0036 11.9702C3.31526 14.5802 3.3086 19.9935 3.3086 19.9935C3.3086 19.9935 3.30193 25.4335 3.98526 28.0168C4.3686 29.4452 5.4936 30.5735 6.9236 30.9585C9.56026 31.6752 19.9736 31.6868 19.9736 31.6868C19.9736 31.6868 30.4153 31.6985 33.0253 31.0152C33.7294 30.8241 34.3715 30.4525 34.888 29.9371C35.4045 29.4218 35.7776 28.7806 35.9703 28.0768C36.6603 25.4685 36.6653 20.0568 36.6653 20.0568C36.6653 20.0568 36.6986 14.6152 35.9869 12.0052ZM16.6586 25.0085L16.6669 15.0085L25.3453 20.0168L16.6586 25.0085Z"/></svg>