<svg width="454" height="454" viewBox="0 0 454 454" fill="none" xmlns="http://www.w3.org/2000/svg">
<g clip-path="url(#clip0_713_855)">
<g opacity="0.8" filter="url(#filter0_d_713_855)">
<rect x="234.739" y="263.208" width="86.4993" height="86.4993" rx="9.56674" transform="rotate(-12.9988 234.739 263.208)" fill="white"/>
<g clip-path="url(#clip1_713_855)">
<path d="M292.088 292.042C291.968 291.553 291.764 291.089 291.485 290.67C291.246 290.318 290.936 290.019 290.575 289.794C290.213 289.568 289.809 289.42 289.387 289.359C288.895 289.294 288.395 289.312 287.909 289.414C287.28 289.53 287.081 289.568 285.5 289.933C283.92 290.298 283.717 290.344 283.107 290.523C282.626 290.644 282.169 290.847 281.755 291.121C281.403 291.36 281.104 291.67 280.878 292.032C280.653 292.393 280.505 292.797 280.444 293.219C280.378 293.711 280.397 294.21 280.5 294.696C280.616 295.326 280.653 295.525 281.018 297.106C281.383 298.687 281.429 298.889 281.608 299.499C281.73 299.981 281.931 300.438 282.206 300.852C282.446 301.205 282.756 301.503 283.117 301.729C283.479 301.954 283.883 302.102 284.305 302.163C284.797 302.235 285.298 302.223 285.786 302.127C286.416 302.011 286.616 301.974 288.196 301.609C289.777 301.244 289.98 301.197 290.59 301.019C291.071 300.897 291.528 300.695 291.942 300.421C292.294 300.181 292.593 299.871 292.819 299.51C293.044 299.149 293.192 298.744 293.253 298.323C293.319 297.83 293.3 297.331 293.198 296.844C293.082 296.215 293.044 296.016 292.679 294.434C292.313 292.854 292.267 292.653 292.088 292.042V292.042ZM287.532 298.751C285.879 299.133 284.23 298.102 283.848 296.449C283.467 294.796 284.497 293.147 286.15 292.766C286.944 292.582 287.778 292.722 288.469 293.154C289.159 293.585 289.65 294.274 289.834 295.067C290.017 295.861 289.877 296.695 289.446 297.386C289.014 298.077 288.326 298.568 287.532 298.751V298.751ZM289.397 292.634C289.306 292.656 289.211 292.659 289.118 292.643C289.025 292.628 288.936 292.594 288.857 292.544C288.777 292.494 288.708 292.429 288.653 292.353C288.599 292.276 288.56 292.189 288.539 292.098C288.517 292.006 288.514 291.911 288.53 291.819C288.546 291.726 288.579 291.637 288.629 291.557C288.679 291.478 288.744 291.409 288.82 291.354C288.897 291.299 288.983 291.26 289.075 291.239C289.167 291.218 289.261 291.215 289.354 291.231C289.447 291.246 289.536 291.28 289.615 291.33C289.695 291.38 289.764 291.445 289.819 291.521C289.873 291.598 289.912 291.684 289.934 291.776C290.023 292.162 289.783 292.546 289.397 292.634Z" fill="#171717"/>
<path d="M287.29 297.702C288.363 297.454 289.033 296.383 288.785 295.31C288.537 294.236 287.466 293.567 286.392 293.814C285.319 294.062 284.649 295.134 284.897 296.207C285.145 297.281 286.216 297.95 287.29 297.702Z" fill="#171717"/>
</g>
<g clip-path="url(#clip2_713_855)">
<path d="M262.86 336.288L264.354 333.896" stroke="#171717" stroke-width="0.398614" stroke-linecap="round" stroke-linejoin="round"/>
<path d="M262.411 334.345L264.354 333.896L264.802 335.839" stroke="#171717" stroke-width="0.398614" stroke-linecap="round" stroke-linejoin="round"/>
</g>
<path d="M269.865 335.096L270.14 335.033L269.365 331.677L269.09 331.74L269.865 335.096ZM271.083 334.815L271.353 334.753L271.066 333.508C270.944 332.977 271.123 332.587 271.622 332.472C272.135 332.353 272.411 332.658 272.519 333.124L272.817 334.415L273.092 334.351L272.772 332.967C272.639 332.389 272.284 332 271.604 332.157C271.207 332.248 270.978 332.508 270.918 332.826L270.909 332.828L270.809 332.394L270.539 332.457L271.083 334.815ZM273.753 334.105C273.987 334.14 274.218 334.14 274.521 334.071C275.122 333.932 275.372 333.589 275.278 333.184C275.181 332.764 274.896 332.654 274.335 332.65C273.914 332.654 273.727 332.59 273.676 332.366C273.616 332.109 273.827 331.958 274.181 331.876C274.456 331.813 274.655 331.825 274.827 331.845L274.789 331.554C274.606 331.527 274.401 331.511 274.108 331.579C273.586 331.699 273.313 332.027 273.404 332.424C273.491 332.801 273.77 332.904 274.277 332.909C274.767 332.924 274.954 333.013 275.01 333.256C275.08 333.559 274.832 333.739 274.45 333.827C274.175 333.89 273.939 333.891 273.726 333.861L273.753 334.105ZM276.023 333.007C276.127 333.454 276.409 333.635 276.847 333.534C276.982 333.502 277.113 333.452 277.192 333.39L277.108 333.154C277.026 333.203 276.937 333.243 276.82 333.27C276.578 333.326 276.366 333.257 276.29 332.931L275.96 331.5L276.683 331.333L276.618 331.053L275.896 331.22L275.745 330.568L275.521 330.619L275.635 331.28L275.187 331.384L275.252 331.663L275.69 331.562L276.023 333.007ZM278.81 331.298C278.832 331.392 278.834 331.445 278.778 331.497C278.671 331.591 278.504 331.673 278.271 331.771C277.633 332.027 277.41 332.27 277.513 332.717C277.606 333.123 277.975 333.273 278.394 333.176C278.819 333.078 279.002 332.81 279.119 332.528L279.213 332.938L279.488 332.875L279.116 331.262C279.01 330.801 278.694 330.52 278.037 330.672C277.73 330.743 277.467 330.882 277.289 331.046L277.383 331.324C277.535 331.195 277.78 331.045 278.073 330.977C278.526 330.873 278.749 331.033 278.81 331.298ZM278.917 331.656L279.05 332.23C279.005 332.525 278.794 332.844 278.402 332.934C278.118 333 277.853 332.914 277.788 332.634C277.717 332.326 277.896 332.167 278.304 331.999C278.578 331.887 278.804 331.761 278.917 331.656ZM282.134 332.043C282.287 332.71 281.995 333.018 281.525 333.126C281.329 333.171 281.161 333.191 280.985 333.172L281.017 333.415C281.186 333.445 281.392 333.422 281.62 333.369C282.286 333.216 282.58 332.745 282.401 331.967L281.908 329.832L281.638 329.895L281.751 330.384L281.737 330.387C281.493 330.075 281.141 329.955 280.712 330.054C280.05 330.207 279.706 330.841 279.866 331.536C280.03 332.244 280.6 332.652 281.267 332.499C281.691 332.401 281.94 332.117 282.043 331.715L282.057 331.712L282.134 332.043ZM280.8 330.348C281.308 330.231 281.781 330.539 281.905 331.075C282.035 331.639 281.746 332.128 281.238 332.245C280.739 332.36 280.279 332.049 280.148 331.48C280.022 330.935 280.31 330.461 280.8 330.348ZM283.327 331.989L283.597 331.926L283.307 330.668C283.188 330.155 283.347 329.78 283.94 329.648L283.871 329.325C283.451 329.422 283.217 329.662 283.157 330L283.148 330.002L283.048 329.569L282.782 329.63L283.327 331.989ZM285.961 329.648C285.982 329.741 285.985 329.794 285.928 329.847C285.822 329.94 285.655 330.023 285.422 330.121C284.784 330.376 284.56 330.619 284.663 331.066C284.757 331.472 285.125 331.622 285.545 331.526C285.969 331.428 286.153 331.16 286.269 330.877L286.364 331.288L286.639 331.224L286.267 329.611C286.16 329.15 285.845 328.869 285.188 329.021C284.88 329.092 284.618 329.231 284.439 329.395L284.533 329.673C284.685 329.544 284.93 329.395 285.224 329.327C285.676 329.222 285.899 329.382 285.961 329.648ZM286.068 330.006L286.2 330.579C286.155 330.874 285.944 331.193 285.553 331.283C285.269 331.349 285.003 331.263 284.939 330.983C284.868 330.676 285.047 330.516 285.455 330.349C285.728 330.236 285.955 330.111 286.068 330.006ZM287.343 329.751C287.22 329.22 287.391 328.832 287.885 328.718C288.388 328.601 288.66 328.907 288.767 329.373L289.065 330.664L289.336 330.601L289.048 329.357C288.926 328.826 289.101 328.437 289.59 328.324C290.094 328.208 290.366 328.513 290.473 328.979L290.771 330.27L291.042 330.208L290.722 328.823C290.589 328.246 290.229 327.857 289.567 328.01C289.218 328.091 288.939 328.307 288.848 328.785C288.661 328.465 288.337 328.294 287.861 328.404C287.474 328.493 287.254 328.75 287.195 329.068L287.185 329.07L287.085 328.637L286.815 328.699L287.359 331.058L287.63 330.995L287.343 329.751Z" fill="#171717"/>
<rect x="253.776" y="330.611" width="43.0503" height="13.1543" rx="6.17852" transform="rotate(-12.9988 253.776 330.611)" stroke="#EDEDED" stroke-width="0.398614"/>
</g>
<g opacity="0.8" filter="url(#filter1_d_713_855)">
<rect x="139" y="287.017" width="86.4993" height="86.4993" rx="9.56674" transform="rotate(-12.9988 139 287.017)" fill="white"/>
<path d="M167.12 360.096L168.615 357.704" stroke="#171717" stroke-width="0.398614" stroke-linecap="round" stroke-linejoin="round"/>
<path d="M166.672 358.153L168.615 357.704L169.063 359.647" stroke="#171717" stroke-width="0.398614" stroke-linecap="round" stroke-linejoin="round"/>
<path d="M176.545 358.262L176.232 356.906L175.961 356.969L176.229 358.129C176.048 358.215 175.824 358.286 175.618 358.329C174.716 358.527 174 358.084 173.802 357.226C173.609 356.392 174.073 355.657 174.963 355.451C175.266 355.381 175.602 355.368 175.833 355.413L175.789 355.114C175.543 355.048 175.204 355.072 174.902 355.142C173.857 355.383 173.281 356.247 173.519 357.277C173.758 358.312 174.615 358.835 175.684 358.594L175.702 358.589C176.01 358.518 176.344 358.412 176.545 358.262ZM176.831 355.29C176.962 355.26 177.034 355.15 177.004 355.019C176.973 354.884 176.864 354.816 176.729 354.847C176.594 354.879 176.53 354.986 176.561 355.122C176.592 355.252 176.701 355.32 176.831 355.29ZM177.351 358.16L177.621 358.097L177.077 355.739L176.807 355.801L177.351 358.16ZM178.459 357.236C178.562 357.684 178.844 357.864 179.283 357.763C179.418 357.732 179.549 357.682 179.627 357.62L179.544 357.384C179.461 357.432 179.373 357.472 179.256 357.499C179.014 357.555 178.801 357.486 178.726 357.16L178.396 355.729L179.118 355.562L179.054 355.283L178.331 355.449L178.181 354.797L177.957 354.849L178.07 355.51L177.623 355.613L177.687 355.893L178.125 355.792L178.459 357.236ZM181.676 355.797L181.975 357.092L182.25 357.029L181.931 355.645C181.797 355.067 181.438 354.678 180.757 354.835C180.361 354.927 180.135 355.18 180.076 355.498L180.066 355.501L179.694 353.888L179.424 353.95L180.241 357.493L180.512 357.43L180.223 356.181C180.101 355.65 180.281 355.26 180.779 355.145C181.292 355.026 181.568 355.331 181.676 355.797ZM184.399 354.049L184.129 354.111L184.426 355.398C184.539 355.887 184.378 356.317 183.888 356.43C183.385 356.546 183.109 356.246 183.003 355.785L182.693 354.443L182.423 354.505L182.742 355.889C182.875 356.462 183.239 356.85 183.901 356.697C184.288 356.608 184.505 356.356 184.564 356.038L184.573 356.036L184.673 356.47L184.943 356.407L184.399 354.049ZM185.822 356.204L186.092 356.142L185.978 355.648L185.992 355.645C186.236 355.957 186.625 356.068 187.039 355.972C187.687 355.823 188.07 355.185 187.91 354.49C187.743 353.768 187.181 353.353 186.482 353.514C186.02 353.62 185.788 353.91 185.681 354.298L185.667 354.301L185.274 352.6L185.004 352.662L185.822 356.204ZM186.962 355.72C186.44 355.841 185.958 355.54 185.832 354.994C185.703 354.435 186.001 353.939 186.523 353.819C187.026 353.702 187.508 354.023 187.636 354.578C187.763 355.128 187.465 355.604 186.962 355.72Z" fill="#171717"/>
<rect x="158.037" y="354.419" width="35.8753" height="13.1543" rx="6.17852" transform="rotate(-12.9988 158.037 354.419)" stroke="#EDEDED" stroke-width="0.398614"/>
<g clip-path="url(#clip3_713_855)">
<path fill-rule="evenodd" clip-rule="evenodd" d="M189.243 313.192C185.676 314.015 183.453 317.572 184.277 321.139C184.935 323.991 187.343 325.984 190.106 326.246C190.443 326.23 190.514 326.004 190.474 325.834C190.439 325.68 190.34 325.275 190.214 324.737C188.507 325.542 187.838 324.373 187.838 324.373C187.373 323.695 186.903 323.594 186.903 323.594C186.225 323.329 186.858 323.192 186.858 323.192C187.517 323.088 188 323.63 188 323.63C188.804 324.483 189.674 323.982 190.002 323.733C189.965 323.302 190.067 322.978 190.214 322.774C188.743 322.943 187.108 322.736 186.537 320.262C186.374 319.558 186.493 318.922 186.8 318.377C186.697 318.228 186.322 317.623 186.47 316.653C186.47 316.653 186.971 316.354 188.397 316.904C188.891 316.64 189.417 316.441 189.963 316.314C190.509 316.189 191.069 316.137 191.629 316.158C192.67 315.038 193.251 315.088 193.251 315.088C193.809 315.894 193.739 316.603 193.71 316.782C194.228 317.137 194.61 317.656 194.772 318.361C195.345 320.842 193.963 321.735 192.561 322.227C192.837 322.373 193.135 322.719 193.274 323.321C193.473 324.185 193.626 324.883 193.675 325.095C193.715 325.267 193.877 325.441 194.191 325.302C196.559 323.854 197.848 321.009 197.19 318.158C196.366 314.592 192.809 312.368 189.243 313.192Z" fill="#171717"/>
</g>
</g>
<g opacity="0.8" filter="url(#filter2_d_713_855)">
<rect x="330.478" y="240.456" width="86.4993" height="86.4993" rx="9.56674" transform="rotate(-12.9988 330.478 240.456)" fill="white"/>
<g clip-path="url(#clip4_713_855)">
<path d="M358.598 313.535L360.093 311.144" stroke="#171717" stroke-width="0.398614" stroke-linecap="round" stroke-linejoin="round"/>
<path d="M358.15 311.593L360.093 311.144L360.541 313.087" stroke="#171717" stroke-width="0.398614" stroke-linecap="round" stroke-linejoin="round"/>
</g>
<path d="M365.335 312.264C365.615 312.307 365.899 312.325 366.318 312.228C367.152 312.036 367.367 311.539 367.242 310.999C367.101 310.388 366.673 310.256 365.991 310.237C365.36 310.226 365.147 310.088 365.077 309.785C365.009 309.492 365.192 309.179 365.7 309.062C366.04 308.984 366.282 308.987 366.598 309.017L366.553 308.718C366.244 308.676 366.03 308.662 365.629 308.754C364.944 308.913 364.684 309.36 364.795 309.841C364.911 310.344 365.251 310.521 366 310.53C366.508 310.54 366.861 310.645 366.964 311.092C367.063 311.521 366.807 311.836 366.252 311.964C365.893 312.046 365.527 312.033 365.299 311.982L365.335 312.264ZM368.31 312.652L368.58 312.59L368.262 311.21L368.276 311.207C368.521 311.504 368.909 311.63 369.323 311.534C369.971 311.385 370.354 310.747 370.194 310.052C370.027 309.33 369.474 308.913 368.766 309.076C368.332 309.176 368.065 309.464 367.965 309.86L367.951 309.863L367.831 309.346L367.561 309.408L368.31 312.652ZM369.246 311.282C368.724 311.403 368.241 311.097 368.116 310.556C367.987 309.997 368.285 309.501 368.807 309.381C369.31 309.265 369.791 309.585 369.919 310.14C370.048 310.695 369.749 311.166 369.246 311.282ZM370.668 309.928C370.829 310.627 371.427 311.049 372.117 310.89C372.821 310.727 373.173 310.086 373.011 309.382C372.843 308.655 372.249 308.272 371.55 308.433C370.855 308.594 370.499 309.196 370.668 309.928ZM372.058 310.633C371.517 310.758 371.08 310.437 370.948 309.868C370.82 309.314 371.097 308.852 371.619 308.732C372.117 308.617 372.601 308.903 372.729 309.457C372.861 310.03 372.612 310.505 372.058 310.633ZM373.87 309.768C373.973 310.216 374.255 310.396 374.693 310.295C374.828 310.264 374.959 310.214 375.038 310.151L374.954 309.916C374.872 309.964 374.783 310.004 374.667 310.031C374.424 310.087 374.212 310.018 374.137 309.692L373.806 308.261L374.529 308.094L374.464 307.815L373.742 307.981L373.591 307.329L373.367 307.38L373.481 308.042L373.033 308.145L373.098 308.425L373.536 308.323L373.87 309.768ZM375.132 307.155C375.262 307.125 375.335 307.015 375.305 306.884C375.274 306.749 375.165 306.681 375.03 306.712C374.894 306.743 374.831 306.851 374.862 306.986C374.892 307.117 375.001 307.185 375.132 307.155ZM375.652 310.024L375.922 309.962L375.378 307.604L375.107 307.666L375.652 310.024ZM375.988 307.757L376.417 307.658L376.897 309.737L377.172 309.674L376.692 307.595L377.396 307.432L377.331 307.153L376.627 307.315L376.506 306.789C376.443 306.518 376.513 306.311 376.84 306.235C376.951 306.209 377.037 306.199 377.127 306.203L377.1 305.959C376.999 305.948 376.875 305.962 376.735 305.994C376.339 306.086 376.122 306.381 376.235 306.871L376.352 307.379L375.924 307.478L375.988 307.757ZM378.752 310.291C379.18 310.192 379.218 309.908 379.289 309.47L379.749 306.595L379.432 306.668L379.14 308.934L377.838 307.036L377.498 307.114L379.058 309.258L379.016 309.523C378.969 309.853 378.908 309.99 378.656 310.048C378.568 310.068 378.485 310.072 378.414 310.064L378.441 310.308C378.514 310.326 378.635 310.318 378.752 310.291Z" fill="#171717"/>
<rect x="349.515" y="307.858" width="36.2739" height="13.1543" rx="6.17852" transform="rotate(-12.9988 349.515 307.858)" stroke="#EDEDED" stroke-width="0.398614"/>
<g clip-path="url(#clip5_713_855)">
<path d="M381.101 266.557C377.544 267.378 375.306 270.96 376.127 274.517C376.948 278.074 380.53 280.312 384.087 279.491C387.644 278.67 389.882 275.088 389.061 271.531C388.24 267.974 384.69 265.728 381.101 266.557ZM386.233 275.215C386.149 275.438 385.937 275.556 385.713 275.472C383.976 274.884 382.023 275.131 379.879 276.17C379.669 276.288 379.437 276.171 379.327 275.991C379.21 275.78 379.327 275.55 379.507 275.439C381.836 274.322 384.024 274.056 385.944 274.703C386.193 274.748 386.285 274.998 386.233 275.215ZM386.599 273.257C386.489 273.521 386.221 273.685 385.956 273.576C383.964 272.913 381.239 273.2 379.351 274.318C379.108 274.442 378.786 274.38 378.662 274.137C378.537 273.892 378.599 273.571 378.843 273.446C381.039 272.191 384.032 271.875 386.32 272.641C386.537 272.693 386.708 272.993 386.599 273.257V273.257ZM386.245 271.431C383.892 270.68 380.402 271.35 378.571 272.421C378.431 272.499 378.267 272.519 378.111 272.479C377.956 272.439 377.823 272.34 377.739 272.204C377.66 272.064 377.638 271.899 377.679 271.743C377.719 271.588 377.818 271.454 377.954 271.369C380.094 270.16 383.907 269.416 386.629 270.288C386.957 270.382 387.144 270.748 387.049 271.076C386.939 271.34 386.574 271.525 386.245 271.431Z" fill="#171717"/>
</g>
</g>
<g opacity="0.8" filter="url(#filter3_d_713_855)">
<rect x="162.402" y="388.392" width="86.4993" height="86.4993" rx="9.56674" transform="rotate(-12.9988 162.402 388.392)" fill="white"/>
<path d="M198.516 460.051L198.234 458.83L198.883 456.432L198.575 456.503L198.04 458.585L196.641 456.949L196.315 457.025L197.962 458.908L198.241 460.115L198.516 460.051ZM199.364 458.608C199.526 459.307 200.124 459.729 200.814 459.57C201.517 459.407 201.87 458.766 201.708 458.063C201.54 457.335 200.946 456.952 200.247 457.114C199.552 457.274 199.195 457.877 199.364 458.608ZM200.754 459.313C200.214 459.438 199.776 459.117 199.645 458.548C199.517 457.994 199.793 457.532 200.315 457.412C200.814 457.297 201.298 457.583 201.426 458.137C201.558 458.711 201.309 459.185 200.754 459.313ZM204.069 456.285L203.798 456.348L204.095 457.634C204.208 458.124 204.047 458.553 203.558 458.666C203.054 458.783 202.779 458.483 202.673 458.021L202.363 456.679L202.092 456.742L202.412 458.126C202.544 458.699 202.909 459.086 203.57 458.933C203.957 458.844 204.174 458.593 204.233 458.275L204.243 458.273L204.343 458.706L204.613 458.644L204.069 456.285ZM205.452 457.782C205.555 458.23 205.837 458.41 206.276 458.309C206.411 458.278 206.542 458.228 206.62 458.166L206.537 457.93C206.454 457.978 206.366 458.018 206.249 458.045C206.007 458.101 205.794 458.032 205.719 457.706L205.389 456.275L206.111 456.108L206.047 455.829L205.324 455.995L205.174 455.343L204.95 455.395L205.063 456.056L204.616 456.159L204.68 456.439L205.118 456.338L205.452 457.782ZM208.643 455.229L208.373 455.292L208.669 456.578C208.782 457.068 208.621 457.497 208.132 457.61C207.629 457.727 207.353 457.427 207.247 456.965L206.937 455.623L206.667 455.686L206.986 457.07C207.119 457.643 207.483 458.03 208.145 457.878C208.532 457.788 208.748 457.537 208.808 457.219L208.817 457.217L208.917 457.65L209.187 457.588L208.643 455.229ZM210.065 457.385L210.336 457.323L210.222 456.829L210.236 456.825C210.48 457.137 210.869 457.249 211.283 457.153C211.931 457.003 212.314 456.365 212.154 455.671C211.987 454.948 211.425 454.533 210.726 454.695C210.264 454.801 210.032 455.09 209.925 455.478L209.911 455.482L209.518 453.78L209.248 453.843L210.065 457.385ZM211.206 456.901C210.684 457.021 210.202 456.72 210.076 456.175C209.947 455.616 210.245 455.12 210.767 454.999C211.27 454.883 211.751 455.204 211.879 455.759C212.006 456.309 211.709 456.785 211.206 456.901ZM214.837 456.185L214.754 455.954C214.588 456.086 214.374 456.179 214.132 456.235C213.526 456.375 213.078 456.071 212.927 455.546L214.754 455.124C214.755 455.085 214.742 455.009 214.728 454.949C214.613 454.45 214.167 453.9 213.435 454.069C212.764 454.224 212.466 454.847 212.624 455.533C212.798 456.283 213.378 456.669 214.165 456.488C214.417 456.43 214.646 456.337 214.837 456.185ZM213.497 454.359C213.959 454.253 214.316 454.543 214.458 454.967L212.878 455.332C212.81 454.807 213.073 454.457 213.497 454.359Z" fill="#171717"/>
<rect x="181.439" y="455.794" width="39.0642" height="13.1543" rx="6.17852" transform="rotate(-12.9988 181.439 455.794)" stroke="#EDEDED" stroke-width="0.398614"/>
<g clip-path="url(#clip6_713_855)">
<path d="M219.615 416.505C219.478 416.249 219.277 416.033 219.03 415.878C218.784 415.724 218.501 415.637 218.211 415.626C217.133 415.581 213.076 416.513 213.076 416.513C213.076 416.513 209.02 417.444 208.067 417.945C207.812 418.085 207.597 418.29 207.444 418.537C207.29 418.785 207.202 419.068 207.19 419.359C207.156 420.435 207.639 422.538 207.639 422.538C207.639 422.538 208.124 424.652 208.621 425.594C208.898 426.114 209.436 426.451 210.026 426.473C211.115 426.515 215.16 425.586 215.16 425.586C215.16 425.586 219.217 424.654 220.169 424.154C220.426 424.017 220.642 423.815 220.796 423.569C220.951 423.322 221.038 423.04 221.05 422.749C221.084 421.674 220.601 419.572 220.601 419.572C220.601 419.572 220.126 417.455 219.615 416.505V416.505ZM213.274 423.289L212.381 419.404L216.2 420.571L213.274 423.289V423.289Z" fill="#171717"/>
</g>
</g>
<g opacity="0.8" filter="url(#filter4_d_713_855)">
<rect x="353.88" y="341.832" width="86.4993" height="86.4993" rx="9.56674" transform="rotate(-12.9988 353.88 341.832)" fill="white"/>
<path d="M382 414.911L383.495 412.519" stroke="#171717" stroke-width="0.398614" stroke-linecap="round" stroke-linejoin="round"/>
<path d="M381.552 412.968L383.495 412.519L383.943 414.462" stroke="#171717" stroke-width="0.398614" stroke-linecap="round" stroke-linejoin="round"/>
<path d="M387.92 410.74L388.959 410.5L389.667 413.567L389.947 413.502L389.239 410.435L390.264 410.198L390.198 409.909L387.853 410.451L387.92 410.74ZM393.54 412.673L393.847 412.602L394.062 410.068L393.764 410.137L393.63 412.362L392.389 410.454L392.086 410.524L391.875 412.757L390.725 410.838L390.404 410.912L391.768 413.081L392.071 413.012L392.305 410.832L393.54 412.673ZM394.61 409.436C394.741 409.406 394.814 409.296 394.783 409.165C394.752 409.03 394.643 408.962 394.508 408.993C394.373 409.024 394.309 409.132 394.341 409.267C394.371 409.398 394.48 409.466 394.61 409.436ZM395.13 412.305L395.401 412.243L394.856 409.885L394.586 409.947L395.13 412.305ZM396.238 411.382C396.341 411.829 396.624 412.01 397.062 411.909C397.197 411.877 397.328 411.828 397.407 411.765L397.323 411.529C397.241 411.578 397.152 411.618 397.035 411.645C396.793 411.701 396.581 411.632 396.505 411.306L396.175 409.875L396.897 409.708L396.833 409.428L396.11 409.595L395.96 408.943L395.736 408.994L395.849 409.655L395.402 409.759L395.467 410.038L395.905 409.937L396.238 411.382ZM399.523 410.928C399.371 411.056 399.172 411.151 398.944 411.204C398.37 411.337 397.879 411.038 397.741 410.441C397.622 409.924 397.903 409.441 398.477 409.309C398.719 409.253 398.95 409.254 399.128 409.301L399.09 409.01C398.897 408.962 398.687 408.946 398.398 409.013C397.625 409.192 397.301 409.811 397.461 410.501C397.635 411.256 398.248 411.635 398.993 411.463C399.24 411.406 399.451 411.298 399.608 411.169L399.523 410.928ZM401.722 409.419L402.021 410.715L402.296 410.651L401.976 409.267C401.843 408.689 401.483 408.301 400.803 408.458C400.407 408.549 400.181 408.803 400.121 409.121L400.112 409.123L399.74 407.51L399.47 407.573L400.287 411.115L400.558 411.053L400.269 409.803C400.147 409.272 400.327 408.882 400.825 408.767C401.338 408.649 401.614 408.953 401.722 409.419Z" fill="#171717"/>
<rect x="372.917" y="409.234" width="35.078" height="13.1543" rx="6.17852" transform="rotate(-12.9988 372.917 409.234)" stroke="#EDEDED" stroke-width="0.398614"/>
<g clip-path="url(#clip7_713_855)">
<path d="M399.248 369.814L398.913 372.097L400.889 380.657L403.803 379.984L404.033 380.982L405.799 381.154L406.99 379.249L409.358 378.702L411.809 374.779L410.085 367.312L399.248 369.814ZM410.589 374.485L409.189 376.727L406.275 377.4L405.084 379.305L404.727 377.757L402.268 378.325L400.502 370.675L409.244 368.657L410.589 374.485V374.485ZM407.907 371.172L408.643 374.359L407.55 374.611L406.815 371.424L407.907 371.172ZM404.993 371.845L405.729 375.032L404.636 375.284L403.9 372.097L404.993 371.845Z" fill="#171717"/>
</g>
</g>
<g opacity="0.8" filter="url(#filter5_d_713_855)">
<rect x="258.141" y="364.583" width="86.4993" height="86.4993" rx="9.56674" transform="rotate(-12.9988 258.141 364.583)" fill="white"/>
<path d="M286.261 437.663L287.756 435.271" stroke="#171717" stroke-width="0.398614" stroke-linecap="round" stroke-linejoin="round"/>
<path d="M285.813 435.72L287.756 435.271L288.204 437.214" stroke="#171717" stroke-width="0.398614" stroke-linecap="round" stroke-linejoin="round"/>
<path d="M293.267 436.471L294.078 436.284C295.08 436.053 295.747 435.265 295.501 434.198C295.272 433.205 294.44 432.666 293.261 432.938L292.492 433.115L293.267 436.471ZM293.333 433.231C294.275 433.013 295.027 433.443 295.218 434.268C295.409 435.098 294.982 435.8 293.994 436.028L293.481 436.147L292.835 433.346L293.333 433.231ZM296.583 435.706L296.854 435.643L296.563 434.385C296.445 433.872 296.604 433.497 297.197 433.365L297.127 433.042C296.707 433.139 296.473 433.38 296.414 433.717L296.405 433.719L296.304 433.286L296.039 433.347L296.583 435.706ZM297.775 432.441C297.905 432.411 297.978 432.301 297.948 432.17C297.917 432.035 297.808 431.967 297.672 431.998C297.537 432.029 297.474 432.137 297.505 432.272C297.535 432.403 297.644 432.471 297.775 432.441ZM298.295 435.311L298.565 435.248L298.021 432.89L297.75 432.952L298.295 435.311ZM299.442 435.046L299.712 434.983L299.598 434.489L299.612 434.486C299.856 434.798 300.245 434.909 300.66 434.814C301.307 434.664 301.69 434.026 301.53 433.332C301.363 432.609 300.801 432.194 300.102 432.355C299.64 432.462 299.408 432.751 299.301 433.139L299.287 433.142L298.894 431.441L298.624 431.504L299.442 435.046ZM300.582 434.562C300.06 434.682 299.578 434.381 299.452 433.836C299.323 433.276 299.621 432.781 300.143 432.66C300.646 432.544 301.128 432.865 301.256 433.419C301.383 433.969 301.085 434.445 300.582 434.562ZM302.478 434.345L302.748 434.283L302.634 433.789L302.648 433.785C302.892 434.097 303.281 434.209 303.695 434.113C304.343 433.963 304.726 433.325 304.566 432.631C304.399 431.908 303.837 431.493 303.138 431.655C302.676 431.761 302.444 432.05 302.337 432.438L302.323 432.442L301.93 430.74L301.66 430.803L302.478 434.345ZM303.618 433.861C303.096 433.981 302.614 433.68 302.488 433.135C302.359 432.576 302.657 432.08 303.179 431.959C303.682 431.843 304.164 432.164 304.292 432.719C304.419 433.269 304.121 433.745 303.618 433.861ZM305.513 433.644L305.784 433.582L305.67 433.088L305.684 433.084C305.927 433.396 306.316 433.508 306.731 433.412C307.379 433.263 307.762 432.624 307.602 431.93C307.435 431.207 306.873 430.792 306.174 430.954C305.712 431.06 305.48 431.35 305.373 431.738L305.359 431.741L304.966 430.04L304.696 430.102L305.513 433.644ZM306.653 433.16C306.131 433.281 305.65 432.979 305.524 432.434C305.395 431.875 305.693 431.379 306.215 431.258C306.718 431.142 307.199 431.463 307.327 432.018C307.454 432.568 307.157 433.044 306.653 433.16ZM308.549 432.943L308.82 432.881L308.002 429.339L307.732 429.401L308.549 432.943ZM311.432 432.18L311.349 431.948C311.183 432.08 310.969 432.174 310.727 432.23C310.121 432.369 309.673 432.065 309.522 431.541L311.349 431.119C311.35 431.079 311.337 431.004 311.323 430.943C311.208 430.444 310.762 429.894 310.03 430.063C309.359 430.218 309.061 430.842 309.219 431.527C309.393 432.277 309.973 432.664 310.76 432.482C311.012 432.424 311.241 432.332 311.432 432.18ZM310.092 430.353C310.554 430.247 310.91 430.538 311.052 430.961L309.472 431.326C309.405 430.802 309.668 430.451 310.092 430.353Z" fill="#171717"/>
<rect x="277.178" y="431.986" width="40.26" height="13.1543" rx="6.17852" transform="rotate(-12.9988 277.178 431.986)" stroke="#EDEDED" stroke-width="0.398614"/>
<g clip-path="url(#clip8_713_855)">
<path d="M314.717 392.692C313.926 391.843 312.926 391.218 311.816 390.88C310.69 390.531 309.54 390.491 308.367 390.762C307.193 391.033 306.177 391.573 305.318 392.38C304.459 393.187 303.854 394.154 303.505 395.28C303.156 396.406 303.117 397.556 303.388 398.73C303.659 399.904 304.198 400.921 305.005 401.779C305.796 402.628 306.797 403.253 307.906 403.591C309.032 403.94 310.182 403.98 311.356 403.709C312.529 403.438 313.545 402.899 314.405 402.091C315.254 401.301 315.879 400.3 316.218 399.191C316.567 398.065 316.605 396.915 316.335 395.741C316.064 394.568 315.525 393.551 314.717 392.692ZM308.615 391.837C309.91 391.538 311.152 391.687 312.346 392.284C311.925 393.182 311.186 394.011 310.125 394.774C309.205 393.75 308.276 392.932 307.335 392.322C307.738 392.104 308.169 391.941 308.615 391.837V391.837ZM304.883 394.839C305.218 394.129 305.703 393.5 306.306 392.997C307.27 393.593 308.215 394.397 309.141 395.411C307.936 396.098 306.612 396.608 305.17 396.941C304.8 397.027 304.517 397.083 304.323 397.11C304.35 396.322 304.541 395.549 304.883 394.839V394.839ZM304.462 398.482C304.454 398.447 304.446 398.404 304.439 398.351C304.432 398.298 304.424 398.255 304.416 398.22C304.582 398.191 304.834 398.137 305.17 398.059C306.896 397.661 308.447 397.053 309.821 396.236C309.998 396.449 310.186 396.692 310.385 396.965C309.574 397.352 308.804 398.015 308.076 398.957C307.348 399.898 306.871 400.822 306.644 401.728C305.5 400.91 304.773 399.828 304.462 398.482V398.482ZM311.108 402.634C309.881 402.917 308.693 402.791 307.543 402.258C307.754 401.4 308.182 400.527 308.828 399.642C309.473 398.757 310.174 398.136 310.928 397.78C311.749 399.049 312.419 400.409 312.927 401.832C312.375 402.21 311.758 402.481 311.108 402.634V402.634ZM315.099 399.013C314.833 399.793 314.396 400.505 313.82 401.095C313.354 399.785 312.754 398.541 312.019 397.365C312.612 397.183 313.147 397.036 313.622 396.926C314.14 396.807 314.719 396.696 315.359 396.594C315.458 397.409 315.369 398.237 315.099 399.013ZM313.549 395.962C312.798 396.135 312.111 396.326 311.486 396.533C311.268 396.21 311.041 395.894 310.803 395.586C312.005 394.691 312.79 393.76 313.158 392.793C314.146 393.529 314.81 394.475 315.15 395.633C314.618 395.728 314.084 395.838 313.549 395.962V395.962Z" fill="#171717"/>
</g>
</g>
</g>
<defs>
<filter id="filter0_d_713_855" x="181.724" y="226.08" width="192.098" height="192.098" filterUnits="userSpaceOnUse" color-interpolation-filters="sRGB">
<feFlood flood-opacity="0" result="BackgroundImageFix"/>
<feColorMatrix in="SourceAlpha" type="matrix" values="0 0 0 0 0 0 0 0 0 0 0 0 0 0 0 0 0 0 127 0" result="hardAlpha"/>
<feOffset dx="-8.83588" dy="26.5076"/>
<feGaussianBlur stdDeviation="22.0897"/>
<feComposite in2="hardAlpha" operator="out"/>
<feColorMatrix type="matrix" values="0 0 0 0 0 0 0 0 0 0 0 0 0 0 0 0 0 0 0.04 0"/>
<feBlend mode="normal" in2="BackgroundImageFix" result="effect1_dropShadow_713_855"/>
<feBlend mode="normal" in="SourceGraphic" in2="effect1_dropShadow_713_855" result="shape"/>
</filter>
<filter id="filter1_d_713_855" x="85.9847" y="249.889" width="192.098" height="192.098" filterUnits="userSpaceOnUse" color-interpolation-filters="sRGB">
<feFlood flood-opacity="0" result="BackgroundImageFix"/>
<feColorMatrix in="SourceAlpha" type="matrix" values="0 0 0 0 0 0 0 0 0 0 0 0 0 0 0 0 0 0 127 0" result="hardAlpha"/>
<feOffset dx="-8.83588" dy="26.5076"/>
<feGaussianBlur stdDeviation="22.0897"/>
<feComposite in2="hardAlpha" operator="out"/>
<feColorMatrix type="matrix" values="0 0 0 0 0 0 0 0 0 0 0 0 0 0 0 0 0 0 0.04 0"/>
<feBlend mode="normal" in2="BackgroundImageFix" result="effect1_dropShadow_713_855"/>
<feBlend mode="normal" in="SourceGraphic" in2="effect1_dropShadow_713_855" result="shape"/>
</filter>
<filter id="filter2_d_713_855" x="277.463" y="203.328" width="192.098" height="192.098" filterUnits="userSpaceOnUse" color-interpolation-filters="sRGB">
<feFlood flood-opacity="0" result="BackgroundImageFix"/>
<feColorMatrix in="SourceAlpha" type="matrix" values="0 0 0 0 0 0 0 0 0 0 0 0 0 0 0 0 0 0 127 0" result="hardAlpha"/>
<feOffset dx="-8.83588" dy="26.5076"/>
<feGaussianBlur stdDeviation="22.0897"/>
<feComposite in2="hardAlpha" operator="out"/>
<feColorMatrix type="matrix" values="0 0 0 0 0 0 0 0 0 0 0 0 0 0 0 0 0 0 0.04 0"/>
<feBlend mode="normal" in2="BackgroundImageFix" result="effect1_dropShadow_713_855"/>
<feBlend mode="normal" in="SourceGraphic" in2="effect1_dropShadow_713_855" result="shape"/>
</filter>
<filter id="filter3_d_713_855" x="109.387" y="351.264" width="192.098" height="192.098" filterUnits="userSpaceOnUse" color-interpolation-filters="sRGB">
<feFlood flood-opacity="0" result="BackgroundImageFix"/>
<feColorMatrix in="SourceAlpha" type="matrix" values="0 0 0 0 0 0 0 0 0 0 0 0 0 0 0 0 0 0 127 0" result="hardAlpha"/>
<feOffset dx="-8.83588" dy="26.5076"/>
<feGaussianBlur stdDeviation="22.0897"/>
<feComposite in2="hardAlpha" operator="out"/>
<feColorMatrix type="matrix" values="0 0 0 0 0 0 0 0 0 0 0 0 0 0 0 0 0 0 0.04 0"/>
<feBlend mode="normal" in2="BackgroundImageFix" result="effect1_dropShadow_713_855"/>
<feBlend mode="normal" in="SourceGraphic" in2="effect1_dropShadow_713_855" result="shape"/>
</filter>
<filter id="filter4_d_713_855" x="300.865" y="304.703" width="192.098" height="192.098" filterUnits="userSpaceOnUse" color-interpolation-filters="sRGB">
<feFlood flood-opacity="0" result="BackgroundImageFix"/>
<feColorMatrix in="SourceAlpha" type="matrix" values="0 0 0 0 0 0 0 0 0 0 0 0 0 0 0 0 0 0 127 0" result="hardAlpha"/>
<feOffset dx="-8.83588" dy="26.5076"/>
<feGaussianBlur stdDeviation="22.0897"/>
<feComposite in2="hardAlpha" operator="out"/>
<feColorMatrix type="matrix" values="0 0 0 0 0 0 0 0 0 0 0 0 0 0 0 0 0 0 0.04 0"/>
<feBlend mode="normal" in2="BackgroundImageFix" result="effect1_dropShadow_713_855"/>
<feBlend mode="normal" in="SourceGraphic" in2="effect1_dropShadow_713_855" result="shape"/>
</filter>
<filter id="filter5_d_713_855" x="205.126" y="327.455" width="192.098" height="192.098" filterUnits="userSpaceOnUse" color-interpolation-filters="sRGB">
<feFlood flood-opacity="0" result="BackgroundImageFix"/>
<feColorMatrix in="SourceAlpha" type="matrix" values="0 0 0 0 0 0 0 0 0 0 0 0 0 0 0 0 0 0 127 0" result="hardAlpha"/>
<feOffset dx="-8.83588" dy="26.5076"/>
<feGaussianBlur stdDeviation="22.0897"/>
<feComposite in2="hardAlpha" operator="out"/>
<feColorMatrix type="matrix" values="0 0 0 0 0 0 0 0 0 0 0 0 0 0 0 0 0 0 0.04 0"/>
<feBlend mode="normal" in2="BackgroundImageFix" result="effect1_dropShadow_713_855"/>
<feBlend mode="normal" in="SourceGraphic" in2="effect1_dropShadow_713_855" result="shape"/>
</filter>
<clipPath id="clip0_713_855">
<rect width="454" height="454" fill="white"/>
</clipPath>
<clipPath id="clip1_713_855">
<rect width="15.9446" height="15.9446" fill="white" transform="translate(277.287 289.796) rotate(-12.9988)"/>
</clipPath>
<clipPath id="clip2_713_855">
<rect width="4.78337" height="4.78337" fill="white" transform="translate(260.738 333.299) rotate(-12.9988)"/>
</clipPath>
<clipPath id="clip3_713_855">
<rect width="15.9446" height="15.9446" fill="white" transform="translate(181.159 313.694) rotate(-12.9988)"/>
</clipPath>
<clipPath id="clip4_713_855">
<rect width="4.78337" height="4.78337" fill="white" transform="translate(356.477 310.547) rotate(-12.9988)"/>
</clipPath>
<clipPath id="clip5_713_855">
<rect width="15.9446" height="15.9446" fill="white" transform="translate(373.025 267.044) rotate(-12.9988)"/>
</clipPath>
<clipPath id="clip6_713_855">
<rect width="15.9446" height="15.9446" fill="white" transform="translate(204.561 415.069) rotate(-12.9988)"/>
</clipPath>
<clipPath id="clip7_713_855">
<rect width="15.9446" height="15.9446" fill="white" transform="translate(396.039 368.509) rotate(-12.9988)"/>
</clipPath>
<clipPath id="clip8_713_855">
<rect width="15.9446" height="15.9446" fill="white" transform="translate(300.3 391.261) rotate(-12.9988)"/>
</clipPath>
</defs>
</svg>
